<?xml version="1.0" encoding="UTF-8"?>
<svg xmlns="http://www.w3.org/2000/svg" xmlns:xlink="http://www.w3.org/1999/xlink" width="2401" height="2401" viewBox="0 0 2401 2401">
<path fill-rule="evenodd" fill="rgb(100%, 100%, 100%)" fill-opacity="1" d="M 2400.011719 1 L 0.015625 1 L 0.015625 2400.996094 L 2400.011719 2400.996094 L 2400.011719 1 "/>
<path fill-rule="evenodd" fill="rgb(0%, 0%, 0%)" fill-opacity="1" d="M 825.109375 941.640625 C 805.859375 945.289062 793.21875 963.859375 796.875 983.109375 C 800.53125 1002.359375 819.097656 1015 838.347656 1011.339844 C 857.597656 1007.691406 870.238281 989.121094 866.582031 969.871094 C 862.925781 950.621094 844.359375 937.980469 825.109375 941.640625 Z M 1397.398438 1177.820312 L 1365.070312 1177.820312 C 1463.300781 1142.621094 1533.578125 1048.710938 1533.578125 938.378906 C 1533.578125 797.941406 1419.730469 684.089844 1279.289062 684.089844 C 1162.679688 684.089844 1064.410156 762.589844 1034.421875 869.621094 C 987.445312 787.980469 892.4375 741.019531 794.6875 759.578125 C 671.214844 783.03125 590.128906 902.128906 613.578125 1025.609375 C 627.148438 1097.058594 672.753906 1154.308594 732.695312 1185.328125 C 730.378906 1188.429688 729.003906 1192.269531 729.003906 1196.421875 L 729.003906 1328.738281 L 892.980469 1328.738281 L 892.980469 1338.589844 L 620.464844 1338.589844 C 617.316406 1338.589844 614.742188 1341.160156 614.742188 1344.308594 L 614.742188 1362.199219 L 599.851562 1362.199219 C 593.914062 1377.570312 593.914062 1397.410156 599.851562 1412.773438 L 614.742188 1412.773438 L 614.742188 1436.867188 C 614.742188 1440.015625 617.316406 1442.59375 620.464844 1442.59375 L 729.003906 1442.59375 L 729.003906 1590.492188 C 729.003906 1600.726562 737.375 1609.101562 747.609375 1609.101562 L 965.984375 1609.101562 C 996.605469 1673.429688 1062.199219 1717.902344 1138.191406 1717.902344 C 1214.179688 1717.902344 1279.769531 1673.429688 1310.390625 1609.101562 L 1397.398438 1609.101562 C 1407.628906 1609.101562 1416 1600.726562 1416 1590.492188 L 1416 1405.039062 L 1426.171875 1405.117188 C 1431.460938 1362.558594 1431.488281 1302.230469 1426.171875 1259.488281 L 1416 1259.558594 L 1416 1196.421875 C 1416 1186.191406 1407.628906 1177.820312 1397.398438 1177.820312 Z M 1193.5 1177.820312 L 955.105469 1177.820312 C 1001.550781 1149.660156 1036.21875 1105.730469 1053.160156 1054.78125 C 1082.488281 1111.640625 1132.628906 1156 1193.5 1177.820312 Z M 1020.050781 1609.101562 L 1040.988281 1609.101562 C 1064.289062 1636.761719 1099.179688 1654.339844 1138.191406 1654.339844 C 1177.191406 1654.339844 1212.078125 1636.761719 1235.390625 1609.101562 L 1256.328125 1609.101562 C 1230.378906 1646.492188 1187.148438 1670.980469 1138.191406 1670.980469 C 1089.230469 1670.980469 1045.988281 1646.492188 1020.050781 1609.101562 Z M 456.585938 1460.722656 C 456.585938 1460.722656 485.449219 1445.695312 499.761719 1433.527344 C 514.074219 1421.363281 518.71875 1411.550781 518.71875 1411.550781 C 519.242188 1411.828125 519.789062 1412.0625 520.359375 1412.253906 C 517.054688 1396.941406 517.0625 1378.011719 520.359375 1362.71875 C 519.789062 1362.910156 519.242188 1363.148438 518.71875 1363.421875 C 518.71875 1363.421875 514.074219 1353.609375 499.761719 1341.449219 C 485.449219 1329.28125 456.585938 1314.25 456.585938 1314.25 C 406.21875 1274.128906 406.21875 1500.847656 456.585938 1460.722656 Z M 592.652344 1362.199219 L 580.789062 1362.199219 C 576.625 1376.609375 576.59375 1398.289062 580.785156 1412.773438 L 592.652344 1412.773438 C 587.300781 1397.179688 587.300781 1377.800781 592.652344 1362.199219 Z M 562.21875 1362.199219 L 539.042969 1362.199219 C 534.878906 1376.609375 534.847656 1398.289062 539.039062 1412.773438 L 562.21875 1412.773438 C 558.761719 1397.199219 558.769531 1377.75 562.21875 1362.199219 Z M 442.148438 1452.503906 C 442.148438 1452.503906 434.757812 1436.519531 432.609375 1414.097656 C 430.683594 1393.980469 430.683594 1381 432.609375 1360.878906 C 434.757812 1338.460938 442.148438 1322.46875 442.148438 1322.46875 C 421.609375 1345.851562 421.609375 1429.125 442.148438 1452.503906 Z M 476.261719 1353.539062 C 476.261719 1353.539062 497.132812 1368.691406 501.308594 1374.058594 C 505.484375 1379.421875 512.164062 1379.070312 513.953125 1376.199219 C 515.742188 1373.339844 512.996094 1370.960938 510.613281 1371.429688 C 508.226562 1371.910156 494.988281 1364.28125 476.261719 1353.539062 Z M 476.261719 1421.433594 C 476.261719 1421.433594 497.132812 1406.285156 501.308594 1400.921875 C 505.484375 1395.550781 512.164062 1395.910156 513.953125 1398.769531 C 515.742188 1401.632812 512.996094 1404.019531 510.613281 1403.542969 C 508.226562 1403.066406 494.988281 1410.699219 476.261719 1421.433594 Z M 1430.46875 1406.738281 L 1433.808594 1406.738281 C 1433.808594 1406.738281 1434.179688 1411.941406 1435.109375 1417.082031 C 1443.058594 1387.738281 1443.75 1279.421875 1435.109375 1247.519531 C 1434.179688 1252.671875 1433.808594 1257.871094 1433.808594 1257.871094 L 1430.46875 1257.871094 C 1436.269531 1299.359375 1436.230469 1365.578125 1430.46875 1406.738281 Z M 1437.089844 1424.398438 C 1437.648438 1425.699219 1438.308594 1426.636719 1439.058594 1426.953125 L 1482.589844 1426.953125 C 1482.589844 1426.953125 1482.601562 1427 1482.609375 1427.082031 C 1491.980469 1408.160156 1494.179688 1260.890625 1482.609375 1237.519531 C 1482.601562 1237.609375 1482.589844 1237.648438 1482.589844 1237.648438 L 1439.058594 1237.648438 C 1438.308594 1237.96875 1437.648438 1238.910156 1437.089844 1240.210938 C 1449.179688 1266.28125 1447.140625 1402.703125 1437.089844 1424.398438 Z M 1485.429688 1430.925781 C 1485.660156 1430.980469 1485.910156 1431.007812 1486.171875 1431.007812 C 1489.269531 1431.007812 1508.589844 1431.007812 1508.589844 1431.007812 C 1508.589844 1431.007812 1517.898438 1418.605469 1517.898438 1381.871094 C 1517.898438 1381.871094 1524.089844 1381.871094 1527.191406 1381.871094 C 1530.289062 1381.871094 1533.160156 1387.121094 1538.519531 1387.121094 C 1543.890625 1387.121094 1549.96875 1387.121094 1549.96875 1387.121094 C 1549.96875 1387.121094 1550.210938 1392.71875 1552.480469 1392.71875 C 1554.738281 1392.71875 1557.371094 1392.71875 1559.511719 1392.71875 C 1561.660156 1392.71875 1562.738281 1389.261719 1562.738281 1387 C 1562.738281 1387 1569.171875 1386.640625 1572.328125 1383.839844 C 1575.5 1381.03125 1578.238281 1378.890625 1585.988281 1378.890625 C 1593.738281 1378.890625 1604.71875 1386.761719 1632.148438 1386.761719 C 1632.148438 1386.761719 1634.171875 1413.714844 1642.519531 1413.714844 C 1650.871094 1413.714844 1654.691406 1387.238281 1654.691406 1362.671875 C 1654.691406 1338.101562 1654.691406 1332.300781 1654.691406 1332.300781 C 1654.691406 1332.300781 1654.691406 1326.511719 1654.691406 1301.941406 C 1654.691406 1277.371094 1650.871094 1250.890625 1642.519531 1250.890625 C 1634.171875 1250.890625 1632.148438 1277.851562 1632.148438 1277.851562 C 1604.71875 1277.851562 1593.738281 1285.71875 1585.988281 1285.71875 C 1578.238281 1285.71875 1575.5 1283.570312 1572.328125 1280.769531 C 1569.171875 1277.96875 1562.738281 1277.609375 1562.738281 1277.609375 C 1562.738281 1275.339844 1561.660156 1271.878906 1559.511719 1271.878906 C 1557.371094 1271.878906 1554.738281 1271.878906 1552.480469 1271.878906 C 1550.210938 1271.878906 1549.96875 1277.488281 1549.96875 1277.488281 C 1549.96875 1277.488281 1543.890625 1277.488281 1538.519531 1277.488281 C 1533.160156 1277.488281 1530.289062 1282.730469 1527.191406 1282.730469 C 1524.089844 1282.730469 1517.898438 1282.730469 1517.898438 1282.730469 C 1517.898438 1246 1508.589844 1233.601562 1508.589844 1233.601562 C 1508.589844 1233.601562 1489.269531 1233.601562 1486.171875 1233.601562 C 1485.910156 1233.601562 1485.660156 1233.628906 1485.429688 1233.679688 C 1499.859375 1257.011719 1496.800781 1412.546875 1485.429688 1430.925781 Z M 1320.558594 1526.496094 L 1320.558594 1240.820312 L 1072.5 1240.820312 L 1072.5 1212.640625 L 1348.738281 1212.640625 L 1348.738281 1526.496094 Z M 1968.101562 1135.03125 C 1976.511719 1135.03125 1981.21875 1144.109375 1981.21875 1165.351562 C 1981.21875 1186.589844 1981.21875 1330.191406 1981.21875 1330.191406 C 1981.21875 1330.191406 1981.21875 1473.792969 1981.21875 1495.03125 C 1981.21875 1516.269531 1976.511719 1525.355469 1968.101562 1525.355469 C 1918.25 1526.894531 1900.351562 1519.816406 1893.671875 1516.746094 C 1887 1513.679688 1720.011719 1444.0625 1700.449219 1436.511719 C 1680.890625 1428.960938 1674.210938 1424.824219 1674.210938 1413.496094 C 1674.210938 1402.171875 1674.210938 1330.191406 1674.210938 1330.191406 C 1674.210938 1330.191406 1674.210938 1258.21875 1674.210938 1246.890625 C 1674.210938 1235.558594 1680.890625 1231.429688 1700.449219 1223.871094 C 1720.011719 1216.320312 1887 1146.710938 1893.671875 1143.640625 C 1900.351562 1140.570312 1918.25 1133.488281 1968.101562 1135.03125 Z M 1225.269531 1502.636719 C 1203.269531 1502.636719 1185.429688 1520.472656 1185.429688 1542.476562 C 1185.429688 1564.476562 1203.269531 1582.3125 1225.269531 1582.3125 C 1247.269531 1582.3125 1265.101562 1564.476562 1265.101562 1542.476562 C 1265.101562 1520.472656 1247.269531 1502.636719 1225.269531 1502.636719 Z M 1198.03125 1554.613281 L 1249.898438 1525.664062 C 1244.53125 1517.8125 1235.5 1512.65625 1225.269531 1512.65625 C 1208.800781 1512.65625 1195.449219 1526.007812 1195.449219 1542.476562 C 1195.449219 1546.796875 1196.371094 1550.90625 1198.03125 1554.613281 Z M 1253.898438 1534.132812 L 1203.140625 1562.464844 C 1208.601562 1568.5 1216.488281 1572.292969 1225.269531 1572.292969 C 1241.738281 1572.292969 1255.089844 1558.941406 1255.089844 1542.476562 C 1255.089844 1539.578125 1254.671875 1536.777344 1253.898438 1534.132812 Z M 1225.269531 1487.367188 C 1248.570312 1487.367188 1268.5 1501.835938 1276.550781 1522.277344 C 1267.019531 1505.828125 1249.230469 1494.765625 1228.851562 1494.765625 C 1198.410156 1494.765625 1173.738281 1519.433594 1173.738281 1549.867188 C 1173.738281 1557 1175.089844 1563.8125 1177.558594 1570.066406 C 1172.859375 1561.953125 1170.160156 1552.527344 1170.160156 1542.476562 C 1170.160156 1512.039062 1194.828125 1487.367188 1225.269531 1487.367188 Z M 1220.261719 1364.28125 C 1201.941406 1364.28125 1187.101562 1379.121094 1187.101562 1397.441406 C 1187.101562 1415.75 1201.941406 1430.59375 1220.261719 1430.59375 C 1238.570312 1430.59375 1253.410156 1415.75 1253.410156 1397.441406 C 1253.410156 1379.121094 1238.570312 1364.28125 1220.261719 1364.28125 Z M 1220.261719 1387.488281 C 1214.761719 1387.488281 1210.308594 1391.941406 1210.308594 1397.441406 C 1210.308594 1402.933594 1214.761719 1407.386719 1220.261719 1407.386719 C 1225.75 1407.386719 1230.210938 1402.933594 1230.210938 1397.441406 C 1230.210938 1391.941406 1225.75 1387.488281 1220.261719 1387.488281 Z M 1199.558594 1354.648438 C 1196.21875 1356.269531 1194.308594 1359.660156 1194.410156 1363.148438 C 1194.121094 1363.371094 1193.820312 1363.601562 1193.53125 1363.828125 C 1190.179688 1362.851562 1186.421875 1363.851562 1184.019531 1366.691406 C 1181.609375 1369.519531 1181.238281 1373.390625 1182.75 1376.53125 C 1182.558594 1376.859375 1182.390625 1377.191406 1182.210938 1377.519531 C 1178.75 1377.980469 1175.71875 1380.421875 1174.671875 1383.980469 C 1173.621094 1387.539062 1174.851562 1391.238281 1177.5 1393.511719 C 1177.46875 1393.871094 1177.441406 1394.238281 1177.410156 1394.609375 C 1174.441406 1396.441406 1172.640625 1399.890625 1173.128906 1403.578125 C 1173.609375 1407.257812 1176.210938 1410.140625 1179.550781 1411.140625 C 1179.671875 1411.496094 1179.800781 1411.855469 1179.929688 1412.207031 C 1177.949219 1415.078125 1177.710938 1418.953125 1179.640625 1422.128906 C 1181.570312 1425.300781 1185.128906 1426.878906 1188.589844 1426.4375 C 1188.839844 1426.710938 1189.101562 1426.980469 1189.359375 1427.246094 C 1188.699219 1430.675781 1190.058594 1434.328125 1193.109375 1436.449219 C 1196.148438 1438.570312 1200.039062 1438.574219 1203.03125 1436.777344 C 1203.371094 1436.925781 1203.71875 1437.074219 1204.058594 1437.214844 C 1204.859375 1440.609375 1207.570312 1443.394531 1211.21875 1444.101562 C 1214.871094 1444.804688 1218.429688 1443.230469 1220.429688 1440.371094 C 1220.800781 1440.371094 1221.171875 1440.367188 1221.539062 1440.355469 C 1223.640625 1443.144531 1227.25 1444.597656 1230.871094 1443.765625 C 1234.488281 1442.9375 1237.109375 1440.0625 1237.789062 1436.644531 C 1238.128906 1436.492188 1238.46875 1436.332031 1238.808594 1436.171875 C 1241.851562 1437.867188 1245.738281 1437.730469 1248.710938 1435.507812 C 1251.691406 1433.28125 1252.921875 1429.589844 1252.148438 1426.183594 C 1252.398438 1425.910156 1252.640625 1425.632812 1252.878906 1425.351562 C 1256.359375 1425.671875 1259.859375 1423.976562 1261.691406 1420.734375 C 1263.5 1417.5 1263.140625 1413.628906 1261.058594 1410.828125 C 1261.179688 1410.472656 1261.289062 1410.113281 1261.398438 1409.753906 C 1264.699219 1408.640625 1267.210938 1405.675781 1267.570312 1401.980469 C 1267.921875 1398.28125 1266.019531 1394.890625 1262.980469 1393.171875 C 1262.949219 1392.789062 1262.910156 1392.421875 1262.859375 1392.058594 C 1265.429688 1389.699219 1266.53125 1385.96875 1265.359375 1382.441406 C 1264.191406 1378.921875 1261.078125 1376.589844 1257.601562 1376.238281 C 1257.421875 1375.921875 1257.230469 1375.589844 1257.039062 1375.269531 C 1258.441406 1372.078125 1257.929688 1368.21875 1255.429688 1365.46875 C 1252.941406 1362.71875 1249.140625 1361.851562 1245.828125 1362.941406 C 1245.53125 1362.71875 1245.230469 1362.5 1244.921875 1362.289062 C 1244.910156 1358.800781 1242.890625 1355.480469 1239.488281 1353.96875 C 1236.101562 1352.46875 1232.28125 1353.210938 1229.691406 1355.539062 C 1229.320312 1355.460938 1228.960938 1355.378906 1228.589844 1355.308594 C 1227.171875 1352.128906 1223.96875 1349.910156 1220.261719 1349.910156 C 1216.539062 1349.910156 1213.351562 1352.128906 1211.921875 1355.308594 C 1211.078125 1355.480469 1210.238281 1355.671875 1209.410156 1355.878906 C 1206.738281 1353.640625 1202.898438 1353.03125 1199.558594 1354.648438 Z M 1279.289062 919.148438 C 1268.671875 919.148438 1260.070312 927.761719 1260.070312 938.378906 C 1260.070312 948.988281 1268.671875 957.601562 1279.289062 957.601562 C 1289.910156 957.601562 1298.519531 948.988281 1298.519531 938.378906 C 1298.519531 927.761719 1289.910156 919.148438 1279.289062 919.148438 Z M 1279.289062 817.050781 C 1212.289062 817.050781 1157.96875 871.371094 1157.96875 938.378906 C 1157.96875 1005.378906 1212.289062 1059.699219 1279.289062 1059.699219 C 1346.300781 1059.699219 1400.621094 1005.378906 1400.621094 938.378906 C 1400.621094 871.371094 1346.300781 817.050781 1279.289062 817.050781 Z M 1279.289062 786.460938 C 1195.390625 786.460938 1127.378906 854.46875 1127.378906 938.378906 C 1127.378906 1022.28125 1195.390625 1090.289062 1279.289062 1090.289062 C 1363.191406 1090.289062 1431.210938 1022.28125 1431.210938 938.378906 C 1431.210938 854.46875 1363.191406 786.460938 1279.289062 786.460938 Z M 893.925781 942.691406 L 949.726562 1080.558594 C 964.554688 1117.191406 980.898438 1145.761719 947.390625 1166.488281 L 947.390625 1166.5 L 947.320312 1166.539062 L 947.246094 1166.589844 L 947.242188 1166.578125 C 913.636719 1187.160156 895.496094 1159.699219 869.472656 1129.960938 L 771.515625 1018.039062 C 745.492188 988.300781 761.328125 939.929688 794.929688 919.140625 L 794.929688 919.128906 L 795.003906 919.089844 L 795.074219 919.039062 L 795.078125 919.050781 C 828.777344 898.410156 879.097656 906.058594 893.925781 942.691406 Z M 913.152344 1088.070312 C 895.410156 1091.441406 883.757812 1108.558594 887.125 1126.300781 C 890.496094 1144.039062 907.609375 1155.691406 925.351562 1152.320312 C 943.09375 1148.949219 954.746094 1131.839844 951.378906 1114.101562 C 948.007812 1096.359375 930.890625 1084.699219 913.152344 1088.070312 Z M 811.199219 846.53125 C 735.746094 860.859375 686.199219 933.640625 700.527344 1009.089844 C 713.359375 1076.660156 773.066406 1123.449219 839.589844 1122.199219 L 814.613281 1093.660156 C 771.113281 1084.769531 735.15625 1050.5 726.359375 1004.191406 C 714.738281 943 754.921875 883.980469 816.105469 872.359375 C 877.289062 860.738281 936.3125 900.921875 947.933594 962.109375 C 951.722656 982.058594 950 1001.78125 943.839844 1019.710938 L 957.34375 1053.070312 C 973.609375 1025.140625 980.269531 991.449219 973.765625 957.199219 C 959.433594 881.75 886.652344 832.199219 811.199219 846.53125 "/>
</svg>
